<svg t="1617097064332" class="icon" viewBox="0 0 1024 1024" version="1.1" xmlns="http://www.w3.org/2000/svg" p-id="2166" width="200" height="200"><path d="M865.706667 719.36zM842.666667 719.36zM159.786667 520.746667a49.066667 49.066667 0 0 1-49.066667-49.066667V163.626667a49.066667 49.066667 0 0 1 49.066667-49.066667h299.52a49.066667 49.066667 0 0 1 0 98.133333H208.853333v258.986667a49.066667 49.066667 0 0 1-49.066666 49.066667z" p-id="2167" fill="#ffffff"></path><path d="M437.973333 496.213333c-12.8 0-25.386667-4.906667-34.986666-14.72L124.8 197.973333c-18.986667-19.413333-18.773333-50.346667 0.64-69.333333 19.413333-18.986667 50.346667-18.773333 69.333333 0.64l278.186667 283.52c18.986667 19.413333 18.773333 50.346667-0.64 69.333333-9.6 9.386667-21.973333 14.08-34.346667 14.08zM872.96 921.173333H573.226667a49.066667 49.066667 0 0 1 0-98.133333h250.666666V564.053333a49.066667 49.066667 0 0 1 98.133334 0v308.053334a49.066667 49.066667 0 0 1-49.066667 49.066666z" p-id="2168" fill="#ffffff"></path><path d="M872.96 921.173333c-12.8 0-25.386667-4.906667-34.986667-14.72L559.573333 622.933333c-18.986667-19.413333-18.773333-50.346667 0.64-69.333333 19.413333-18.986667 50.346667-18.773333 69.333334 0.64l278.4 283.52c18.986667 19.413333 18.773333 50.346667-0.64 69.333333-9.6 9.386667-21.973333 14.08-34.346667 14.08z" p-id="2169" fill="#ffffff"></path></svg>