<svg t="1617089909043" class="icon" viewBox="0 0 1056 1024" version="1.1" xmlns="http://www.w3.org/2000/svg" p-id="2043" width="200" height="200"><path d="M516.384 96c229.664 0 415.872 186.208 415.872 415.872 0 229.696-186.208 415.904-415.872 415.904-229.696 0-415.904-186.208-415.904-415.904C100.48 282.24 286.72 96 516.384 96z m0 64C322.048 160 164.48 317.536 164.48 511.872s157.568 351.904 351.904 351.904c194.336 0 351.872-157.568 351.872-351.904C868.256 317.536 710.72 160 516.384 160z m8.64 515.392a32 32 0 1 1 0 64 32 32 0 0 1 0-64z m0-387.424a32 32 0 0 1 31.808 28.256l0.224 3.744v272.928a32 32 0 0 1-63.808 3.744l-0.192-3.744v-272.96a32 32 0 0 1 32-32z" p-id="2044" fill="#ffffff"></path></svg>